D:\school\WTK\thesis\model\3dpredictsim\Results\batch_lin_tmt\Pog_s1_tmt_bCst_d05_k1000_ig24_act_TTC_v2_GRF.mot
nRows=30
nColumns=19

name D:\school\WTK\thesis\model\3dpredictsim\Results\batch_lin_tmt\Pog_s1_tmt_bCst_d05_k1000_ig24_act_TTC_v2_GRF.mot
datacolumns 19
datarows 30
range 0.6225726529 0.9836647916
endheader
time 	ground_force_vx	ground_force_vy	ground_force_vz	ground_force_px	ground_force_py	ground_force_pz	1_ground_force_vx	1_ground_force_vy	1_ground_force_vz	1_ground_force_px	1_ground_force_py	1_ground_force_pz	ground_torque_x	ground_torque_y	ground_torque_z	1_ground_torque_x	1_ground_torque_y	1_ground_torque_z
        0.6225726529	      110.8959727524	      441.2884646623	        0.2784880696	        0.4214148070	        0.0000000000	        0.0305732670	      -28.9863805316	       20.8427692605	       -6.2602920590	        0.9737306919	        0.0000000000	       -0.0539401188	        0.0000000000	        0.0000000000	        0.0000000000	        0.0000000000	        0.0000000000	        0.0000000000	
        0.6350241059	       77.1281955502	      335.4099453401	        5.9517063176	        0.4291878562	        0.0000000000	        0.0271616108	      -88.8351767429	       77.2209727396	      -24.6045354339	        0.9845683197	        0.0000000000	       -0.0515055944	        0.0000000000	        0.0000000000	        0.0000000000	        0.0000000000	        0.0000000000	        0.0000000000	
        0.6474755590	       41.2478819473	      221.3331739185	       15.9755510919	        0.4426399513	        0.0000000000	        0.0209618638	     -107.7255687450	      223.0583459508	      -43.7957868513	        0.9913568002	        0.0000000000	       -0.0499325801	        0.0000000000	        0.0000000000	        0.0000000000	        0.0000000000	        0.0000000000	        0.0000000000	
        0.6599270121	       25.9926792380	      170.8469125386	       17.2709135498	        0.4481471829	        0.0000000000	        0.0180742157	      -69.7695421193	      466.9536645849	       -2.5214974446	        0.9956684039	        0.0000000000	       -0.0489675033	        0.0000000000	        0.0000000000	        0.0000000000	        0.0000000000	        0.0000000000	        0.0000000000	
        0.6723784651	       20.5691156514	      128.0947497340	       15.6036990707	        0.4484711464	        0.0000000000	        0.0180349680	      -99.6213525963	      713.3626525661	       16.6648832213	        1.0043237736	        0.0000000000	       -0.0503787479	        0.0000000000	        0.0000000000	        0.0000000000	        0.0000000000	        0.0000000000	        0.0000000000	
        0.6848299182	        7.3464263215	       73.4940479628	       12.0628710394	        0.4484026943	        0.0000000000	        0.0180345555	     -144.5157216379	      894.5846680338	       23.6938422180	        1.0134398151	        0.0000000000	       -0.0522538421	        0.0000000000	        0.0000000000	        0.0000000000	        0.0000000000	        0.0000000000	        0.0000000000	
        0.6972813712	       -8.4748968647	       15.9497775466	        1.8566178523	        0.4449889051	        0.0000000000	        0.0171764963	     -157.7426195617	      935.9002618460	       24.8958276731	        1.0191627895	        0.0000000000	       -0.0532759536	        0.0000000000	        0.0000000000	        0.0000000000	        0.0000000000	        0.0000000000	        0.0000000000	
        0.7097328243	        0.4816595199	       -0.4082434451	        0.0556686944	        0.0000000000	        0.0000000000	        0.0000000000	     -143.0459962200	      901.5299566584	       23.9152573064	        1.0232811709	        0.0000000000	       -0.0538349307	        0.0000000000	        0.0000000000	        0.0000000000	        0.0000000000	        0.0000000000	        0.0000000000	
        0.7221842774	       -4.2988715005	        3.1403455104	       -0.5221069536	        0.0000000000	        0.0000000000	        0.0000000000	     -127.4543132745	      838.3643200293	       20.4646926239	        1.0272335166	        0.0000000000	       -0.0540743381	        0.0000000000	        0.0000000000	        0.0000000000	        0.0000000000	        0.0000000000	        0.0000000000	
        0.7346357304	       -3.5365362533	        2.2580930035	       -0.4185637203	        0.0000000000	        0.0000000000	        0.0000000000	     -111.8624828086	      788.0433623453	       18.8227227227	        1.0313387197	        0.0000000000	       -0.0539973369	        0.0000000000	        0.0000000000	        0.0000000000	        0.0000000000	        0.0000000000	        0.0000000000	
        0.7470871835	       -2.2850563221	        1.3264388827	       -0.2561996677	        0.0000000000	        0.0000000000	        0.0000000000	      -99.1105222961	      748.8414809963	       18.3331836958	        1.0361113901	        0.0000000000	       -0.0537110212	        0.0000000000	        0.0000000000	        0.0000000000	        0.0000000000	        0.0000000000	        0.0000000000	
        0.7595386365	       -1.7632384991	        0.9524848013	       -0.1913045411	        0.0000000000	        0.0000000000	        0.0000000000	      -88.4039812238	      717.8600923656	       18.9440941216	        1.0412339309	        0.0000000000	       -0.0532526881	        0.0000000000	        0.0000000000	        0.0000000000	        0.0000000000	        0.0000000000	        0.0000000000	
        0.7719900896	       -1.2091691258	        0.6217252665	       -0.1229801117	        0.0000000000	        0.0000000000	        0.0000000000	      -77.4317661146	      688.9434967702	       19.1868136588	        1.0460986953	        0.0000000000	       -0.0528391596	        0.0000000000	        0.0000000000	        0.0000000000	        0.0000000000	        0.0000000000	        0.0000000000	
        0.7844415426	       -0.8074847280	        0.3990271750	       -0.0785054356	        0.0000000000	        0.0000000000	        0.0000000000	      -67.0446082747	      662.3365470949	       19.8123721744	        1.0506136289	        0.0000000000	       -0.0525216817	        0.0000000000	        0.0000000000	        0.0000000000	        0.0000000000	        0.0000000000	        0.0000000000	
        0.7968929957	       -0.5859787061	        0.2800199966	       -0.0549380675	        0.0000000000	        0.0000000000	        0.0000000000	      -57.4722857913	      639.4380277564	       20.2894060187	        1.0549485802	        0.0000000000	       -0.0522919614	        0.0000000000	        0.0000000000	        0.0000000000	        0.0000000000	        0.0000000000	        0.0000000000	
        0.8093444488	       -0.4774259205	        0.2219216316	       -0.0433572905	        0.0000000000	        0.0000000000	        0.0000000000	      -48.9740443144	      620.4955343864	       20.6370891253	        1.0592968608	        0.0000000000	       -0.0521031197	        0.0000000000	        0.0000000000	        0.0000000000	        0.0000000000	        0.0000000000	        0.0000000000	
        0.8217959018	       -0.4331036487	        0.1965996343	       -0.0379427761	        0.0000000000	        0.0000000000	        0.0000000000	      -41.6165708666	      605.3184812343	       20.5471190213	        1.0637618628	        0.0000000000	       -0.0519250161	        0.0000000000	        0.0000000000	        0.0000000000	        0.0000000000	        0.0000000000	        0.0000000000	
        0.8342473549	       -0.4327938617	        0.1923738705	       -0.0364616284	        0.0000000000	        0.0000000000	        0.0000000000	      -35.2383044741	      593.9335898736	       20.3844843218	        1.0684159592	        0.0000000000	       -0.0517206237	        0.0000000000	        0.0000000000	        0.0000000000	        0.0000000000	        0.0000000000	        0.0000000000	
        0.8466988079	       -0.4768983501	        0.2077252248	       -0.0385334142	        0.0000000000	        0.0000000000	        0.0000000000	      -29.8332857991	      586.3051188816	       20.0383722354	        1.0734228903	        0.0000000000	       -0.0514500611	        0.0000000000	        0.0000000000	        0.0000000000	        0.0000000000	        0.0000000000	        0.0000000000	
        0.8591502610	       -0.5681787876	        0.2427778177	       -0.0436573883	        0.0000000000	        0.0000000000	        0.0000000000	      -25.6024207770	      581.2102911587	       19.3643785249	        1.0787007783	        0.0000000000	       -0.0511002644	        0.0000000000	        0.0000000000	        0.0000000000	        0.0000000000	        0.0000000000	        0.0000000000	
        0.8716017140	       -0.7090874630	        0.2976557892	       -0.0512293656	        0.0000000000	        0.0000000000	        0.0000000000	      -21.5370433613	      577.9675848608	       18.7150780076	        1.0841534078	        0.0000000000	       -0.0506765746	        0.0000000000	        0.0000000000	        0.0000000000	        0.0000000000	        0.0000000000	        0.0000000000	
        0.8840531671	       -0.8949935785	        0.3697667922	       -0.0602103331	        0.0000000000	        0.0000000000	        0.0000000000	      -17.8511607172	      576.0077691729	       18.2093155637	        1.0897628555	        0.0000000000	       -0.0501802031	        0.0000000000	        0.0000000000	        0.0000000000	        0.0000000000	        0.0000000000	        0.0000000000	
        0.8965046202	       -1.1090041710	        0.4519289324	       -0.0692596957	        0.0000000000	        0.0000000000	        0.0000000000	      -14.4503657545	      574.1309981738	       18.2274772789	        1.0953740324	        0.0000000000	       -0.0496406945	        0.0000000000	        0.0000000000	        0.0000000000	        0.0000000000	        0.0000000000	        0.0000000000	
        0.9089560732	       -1.3217535143	        0.5323863111	       -0.0766188325	        0.0000000000	        0.0000000000	        0.0000000000	      -11.1834008838	      571.3820383332	       18.3675328357	        1.1008948892	        0.0000000000	       -0.0490879660	        0.0000000000	        0.0000000000	        0.0000000000	        0.0000000000	        0.0000000000	        0.0000000000	
        0.9214075263	       -1.4983513215	        0.5978023896	       -0.0806706509	        0.0000000000	        0.0000000000	        0.0000000000	       -7.9244938886	      567.8746812403	       18.4654248505	        1.1063006163	        0.0000000000	       -0.0485348252	        0.0000000000	        0.0000000000	        0.0000000000	        0.0000000000	        0.0000000000	        0.0000000000	
        0.9338589793	       -1.6154000957	        0.6395728995	       -0.0802495770	        0.0000000000	        0.0000000000	        0.0000000000	       -4.6623566048	      563.7902997268	       18.2567982740	        1.1115634099	        0.0000000000	       -0.0479900373	        0.0000000000	        0.0000000000	        0.0000000000	        0.0000000000	        0.0000000000	        0.0000000000	
        0.9463104324	       -1.6745583204	        0.6587921670	       -0.0748717219	        0.0000000000	        0.0000000000	        0.0000000000	       -1.2597416569	      559.1710959069	       17.1345350718	        1.1166768635	        0.0000000000	       -0.0474593812	        0.0000000000	        0.0000000000	        0.0000000000	        0.0000000000	        0.0000000000	        0.0000000000	
        0.9587618855	       -1.6944497690	        0.6628995102	       -0.0648547101	        0.0000000000	        0.0000000000	        0.0000000000	        2.1030930869	      555.8808071948	       15.5988293212	        1.1218912298	        0.0000000000	       -0.0468852104	        0.0000000000	        0.0000000000	        0.0000000000	        0.0000000000	        0.0000000000	        0.0000000000	
        0.9712133385	       -1.6820273183	        0.6548421284	       -0.0508971312	        0.0000000000	        0.0000000000	        0.0000000000	        5.2520809542	      554.5505925297	       14.1743576658	        1.1271759289	        0.0000000000	       -0.0462580424	        0.0000000000	        0.0000000000	        0.0000000000	        0.0000000000	        0.0000000000	        0.0000000000	
        0.9836647916	       -1.6145672472	        0.6260643432	       -0.0340101897	        0.0000000000	        0.0000000000	        0.0000000000	        8.3871371689	      555.9733002823	       13.1037979408	        1.1324581586	        0.0000000000	       -0.0455867931	        0.0000000000	        0.0000000000	        0.0000000000	        0.0000000000	        0.0000000000	        0.0000000000	
